3100 0 2 0           
20 CST MICROWAVE STUDIO 14 ACIS 31.0.1 NT 24 Mon Mar 27 15:58:01 2023 
1 9.9999999999999995e-07 1e-10 
T @77 3QEZBN7ZGYNRK42CK9K3PQM4A6NB6D6FDAGVFPQ57DGMPR6VA85VMMN7F8JCPV6V6ARUE4Q4BD4MN 
name_attrib-gen-attrib $-1 -1 $-1 $-1 $-1 2 1 1 1 1 1 1 1 1 1 1 1 1 1 1 1 1 1 @17 VirtualBackground #
body $2 -1 -1 $-1 0 $3 $-1 $-1 T -50 270 -125.0007854179031 50 270.80000000000001 124.9992145820969 #
rgb_color-st-attrib $-1 -1 $4 $-1 $1 2 1 2 1 1 1 1 1 1 1 1 1 1 1 0 1 1 1 0.93999999761581421 0.81999999284744263 0.75999999046325684 #
lump $-1 -1 -1 $-1 $-1 $5 $1 T -50 270 -125.0007854179031 50 270.80000000000001 124.9992145820969 #
name_attrib-gen-attrib $-1 -1 $6 $2 $1 2 1 1 1 1 1 1 1 1 1 1 1 1 1 0 1 1 1 @28 cf0.000000 1.000000 0.000000 #
shell $-1 -1 -1 $-1 $-1 $-1 $7 $-1 $3 T -50 270 -125.0007854179031 50 270.80000000000001 124.9992145820969 #
name_attrib-gen-attrib $-1 -1 $8 $4 $1 2 1 1 1 1 1 1 1 1 1 1 1 1 1 0 1 1 1 @27 c0.940000 0.820000 0.760000 #
face $9 -1 -1 $-1 $10 $11 $5 $-1 $12 forward single T -50 270 124.9992145820969 50 270.80000000000001 124.9992145820969 F #
integer_attrib-name_attrib-gen-attrib $-1 -1 $13 $6 $1 2 1 1 1 1 1 1 1 1 1 1 1 1 1 0 1 1 1 @4 type 6 #
integer_attrib-name_attrib-gen-attrib $-1 -1 $14 $-1 $7 2 0 0 1 1 1 1 1 1 1 1 1 1 1 0 1 1 1 @3 fif 0 #
face $15 -1 -1 $-1 $16 $17 $5 $-1 $18 reversed single T -50 270 -125.0007854179031 50 270.80000000000001 -125.0007854179031 F #
loop $-1 -1 -1 $-1 $-1 $19 $7 T -50 270 124.9992145820969 50 270.80000000000001 124.9992145820969 unknown #
plane-surface $-1 -1 -1 $-1 2.6636067881454926e-17 270.39999999999998 124.9992145820969 0 0 1 6.1232339957367648e-17 1 0 forward_v I I I I #
name_attrib-gen-attrib $-1 -1 $20 $8 $1 2 1 1 1 1 1 1 1 1 1 1 1 1 1 0 1 1 1 @19 mSnake/FR-4 (lossy) #
integer_attrib-name_attrib-gen-attrib $-1 -1 $-1 $9 $7 2 1 1 1 1 1 1 1 1 1 1 1 1 1 0 1 1 1 @3 pid 1 #
integer_attrib-name_attrib-gen-attrib $-1 -1 $21 $-1 $10 2 0 0 1 1 1 1 1 1 1 1 1 1 1 0 1 1 1 @3 fif 0 #
face $22 -1 -1 $-1 $23 $24 $5 $-1 $25 reversed single T 50 270 -125.0007854179031 50 270.80000000000001 124.9992145820969 F #
loop $-1 -1 -1 $-1 $-1 $26 $10 T -50 270 -125.0007854179031 50 270.80000000000001 -125.0007854179031 unknown #
plane-surface $-1 -1 -1 $-1 2.6636067881454926e-17 270.39999999999998 -125.0007854179031 0 0 1 6.1232339957367648e-17 1 0 forward_v I I I I #
coedge $-1 -1 -1 $-1 $27 $28 $29 $30 forward $11 $-1 #
name_attrib-gen-attrib $-1 -1 $31 $13 $1 2 1 1 1 1 1 1 1 1 1 1 1 1 1 0 1 1 1 @26 nSnake/substrate:substrate #
integer_attrib-name_attrib-gen-attrib $-1 -1 $-1 $15 $10 2 1 1 1 1 1 1 1 1 1 1 1 1 1 0 1 1 1 @3 pid 2 #
integer_attrib-name_attrib-gen-attrib $-1 -1 $32 $-1 $16 2 0 0 1 1 1 1 1 1 1 1 1 1 1 0 1 1 1 @3 fif 0 #
face $33 -1 -1 $-1 $34 $35 $5 $-1 $36 reversed single T -50 270 -125.0007854179031 50 270 124.9992145820969 F #
loop $-1 -1 -1 $-1 $-1 $37 $16 T 50 270 -125.0007854179031 50 270.80000000000001 124.9992145820969 unknown #
plane-surface $-1 -1 -1 $-1 50 270.39999999999998 -0.00078541790310550559 -1 6.1232339957367648e-17 0 0 0 1 forward_v I I I I #
coedge $-1 -1 -1 $-1 $38 $39 $40 $41 forward $17 $-1 #
coedge $-1 -1 -1 $-1 $42 $19 $43 $44 forward $11 $-1 #
coedge $-1 -1 -1 $-1 $19 $42 $45 $46 forward $11 $-1 #
coedge $-1 -1 -1 $-1 $47 $48 $19 $30 reversed $49 $-1 #
edge $50 -1 -1 $-1 $51 -50 $52 50 $29 $53 forward @7 unknown T -50 270.80000000000001 124.9992145820969 50 270.80000000000001 124.9992145820969 #
integer_attrib-name_attrib-gen-attrib $-1 -1 $54 $20 $1 2 1 1 1 1 1 1 1 1 1 1 1 1 1 0 1 1 1 @3 noe 12 #
integer_attrib-name_attrib-gen-attrib $-1 -1 $-1 $22 $16 2 1 1 1 1 1 1 1 1 1 1 1 1 1 0 1 1 1 @3 pid 3 #
integer_attrib-name_attrib-gen-attrib $-1 -1 $55 $-1 $23 2 0 0 1 1 1 1 1 1 1 1 1 1 1 0 1 1 1 @3 fif 0 #
face $56 -1 -1 $-1 $57 $58 $5 $-1 $59 reversed single T -50 270 -125.0007854179031 -50 270.80000000000001 124.9992145820969 F #
loop $-1 -1 -1 $-1 $-1 $60 $23 T -50 270 -125.0007854179031 50 270 124.9992145820969 unknown #
plane-surface $-1 -1 -1 $-1 2.1431318985078695e-18 270 -0.00078541790310550559 6.1232339957367648e-17 1 0 0 0 -1 forward_v I I I I #
coedge $-1 -1 -1 $-1 $61 $45 $62 $63 forward $24 $-1 #
coedge $-1 -1 -1 $-1 $64 $26 $61 $65 forward $17 $-1 #
coedge $-1 -1 -1 $-1 $26 $64 $66 $67 forward $17 $-1 #
coedge $-1 -1 -1 $-1 $48 $47 $26 $41 reversed $49 $-1 #
edge $68 -1 -1 $-1 $69 -50 $70 50 $40 $71 forward @7 unknown T -50 270.80000000000001 -125.0007854179031 50 270.80000000000001 -125.0007854179031 #
coedge $-1 -1 -1 $-1 $28 $27 $72 $73 forward $11 $-1 #
coedge $-1 -1 -1 $-1 $74 $75 $27 $44 reversed $58 $-1 #
edge $76 -1 -1 $-1 $52 -0.39999999999999997 $77 0.39999999999999997 $43 $78 forward @7 unknown T -50 270 124.9992145820969 -50 270.80000000000001 124.9992145820969 #
coedge $-1 -1 -1 $-1 $37 $79 $28 $46 reversed $24 $-1 #
edge $80 -1 -1 $-1 $81 -0.39999999999999997 $51 0.39999999999999997 $45 $82 forward @7 unknown T 50 270 124.9992145820969 50 270.80000000000001 124.9992145820969 #
coedge $-1 -1 -1 $-1 $40 $29 $79 $83 forward $49 $-1 #
coedge $-1 -1 -1 $-1 $29 $40 $74 $84 reversed $49 $-1 #
loop $-1 -1 -1 $-1 $-1 $47 $57 T -50 270.80000000000001 -125.0007854179031 50 270.80000000000001 124.9992145820969 unknown #
name_attrib-gen-attrib $-1 -1 $85 $-1 $30 2 1 1 1 1 1 1 1 1 1 1 1 1 1 0 1 1 1 @3 eif #
vertex $86 -1 -1 $-1 $30 $87 #
vertex $88 -1 -1 $-1 $30 $89 #
straight-curve $-1 -1 -1 $-1 5.1129003864401982e-17 270.80000000000001 124.9992145820969 -1 6.1232339957367648e-17 0 I I #
integer_attrib-name_attrib-gen-attrib $-1 -1 $-1 $31 $1 2 1 1 1 1 1 1 1 1 1 1 1 1 1 0 1 1 1 @3 nof 6 #
integer_attrib-name_attrib-gen-attrib $-1 -1 $-1 $33 $23 2 1 1 1 1 1 1 1 1 1 1 1 1 1 0 1 1 1 @3 pid 4 #
integer_attrib-name_attrib-gen-attrib $-1 -1 $90 $-1 $34 2 0 0 1 1 1 1 1 1 1 1 1 1 1 0 1 1 1 @3 fif 0 #
face $91 -1 -1 $-1 $-1 $49 $5 $-1 $92 reversed single F F #
loop $-1 -1 -1 $-1 $-1 $74 $34 T -50 270 -125.0007854179031 -50 270.80000000000001 124.9992145820969 unknown #
plane-surface $-1 -1 -1 $-1 -50 270.39999999999998 -0.00078541790310550559 1 -6.1232339957367648e-17 0 0 0 -1 forward_v I I I I #
coedge $-1 -1 -1 $-1 $93 $72 $75 $94 forward $35 $-1 #
coedge $-1 -1 -1 $-1 $79 $37 $38 $65 reversed $24 $-1 #
coedge $-1 -1 -1 $-1 $72 $93 $37 $63 reversed $35 $-1 #
edge $95 -1 -1 $-1 $81 -125 $96 125 $62 $97 forward @7 unknown T 50 270 -125.0007854179031 50 270 124.9992145820969 #
coedge $-1 -1 -1 $-1 $39 $38 $93 $98 forward $17 $-1 #
edge $99 -1 -1 $-1 $70 -0.39999999999999997 $96 0.39999999999999997 $61 $100 forward @7 unknown T 50 270 -125.0007854179031 50 270.80000000000001 -125.0007854179031 #
coedge $-1 -1 -1 $-1 $75 $74 $39 $67 reversed $58 $-1 #
edge $101 -1 -1 $-1 $102 -0.39999999999999997 $69 0.39999999999999997 $66 $103 forward @7 unknown T -50 270 -125.0007854179031 -50 270.80000000000001 -125.0007854179031 #
name_attrib-gen-attrib $-1 -1 $104 $-1 $41 2 1 1 1 1 1 1 1 1 1 1 1 1 1 0 1 1 1 @3 eif #
vertex $105 -1 -1 $-1 $41 $106 #
vertex $107 -1 -1 $-1 $83 $108 #
straight-curve $-1 -1 -1 $-1 5.1129003864401982e-17 270.80000000000001 -125.0007854179031 1 -6.1232339957367648e-17 0 I I #
coedge $-1 -1 -1 $-1 $60 $62 $42 $73 reversed $35 $-1 #
edge $109 -1 -1 $-1 $77 -50 $81 50 $72 $110 forward @7 unknown T -50 270 124.9992145820969 50 270 124.9992145820969 #
coedge $-1 -1 -1 $-1 $66 $43 $48 $84 forward $58 $-1 #
coedge $-1 -1 -1 $-1 $43 $66 $60 $94 reversed $58 $-1 #
name_attrib-gen-attrib $-1 -1 $111 $-1 $44 2 1 1 1 1 1 1 1 1 1 1 1 1 1 0 1 1 1 @3 eif #
vertex $112 -1 -1 $-1 $44 $113 #
straight-curve $-1 -1 -1 $-1 -50 270.39999999999998 124.9992145820969 -6.1232339957367648e-17 -1 0 I I #
coedge $-1 -1 -1 $-1 $45 $61 $47 $83 reversed $24 $-1 #
name_attrib-gen-attrib $-1 -1 $114 $-1 $46 2 1 1 1 1 1 1 1 1 1 1 1 1 1 0 1 1 1 @3 eif #
vertex $115 -1 -1 $-1 $73 $116 #
straight-curve $-1 -1 -1 $-1 50 270.39999999999998 124.9992145820969 6.1232339957367648e-17 1 0 I I #
edge $117 -1 -1 $-1 $51 -125 $70 125 $47 $118 forward @7 unknown T 50 270.80000000000001 -125.0007854179031 50 270.80000000000001 124.9992145820969 #
edge $119 -1 -1 $-1 $52 -125 $69 125 $48 $120 forward @7 unknown T -50 270.80000000000001 -125.0007854179031 -50 270.80000000000001 124.9992145820969 #
integer_attrib-name_attrib-gen-attrib $-1 -1 $-1 $50 $30 2 1 1 1 1 1 1 1 1 1 1 1 1 1 0 1 1 1 @3 pid 1 #
integer_attrib-name_attrib-gen-attrib $-1 -1 $-1 $-1 $51 2 1 1 1 1 1 1 1 1 1 1 1 1 1 0 1 1 1 @3 pid 1 #
point $-1 -1 -1 $-1 50 270.80000000000001 124.9992145820969 #
integer_attrib-name_attrib-gen-attrib $-1 -1 $-1 $-1 $52 2 1 1 1 1 1 1 1 1 1 1 1 1 1 0 1 1 1 @3 pid 2 #
point $-1 -1 -1 $-1 -50 270.80000000000001 124.9992145820969 #
integer_attrib-name_attrib-gen-attrib $-1 -1 $-1 $56 $34 2 1 1 1 1 1 1 1 1 1 1 1 1 1 0 1 1 1 @3 pid 5 #
integer_attrib-name_attrib-gen-attrib $-1 -1 $121 $-1 $57 2 0 0 1 1 1 1 1 1 1 1 1 1 1 0 1 1 1 @3 fif 0 #
plane-surface $-1 -1 -1 $-1 5.1129003864401982e-17 270.80000000000001 -0.00078541790310550559 -6.1232339957367648e-17 -1 0 0 0 1 forward_v I I I I #
coedge $-1 -1 -1 $-1 $62 $60 $64 $98 reversed $35 $-1 #
edge $122 -1 -1 $-1 $77 -125 $102 125 $75 $123 forward @7 unknown T -50 270 -125.0007854179031 -50 270 124.9992145820969 #
name_attrib-gen-attrib $-1 -1 $124 $-1 $63 2 1 1 1 1 1 1 1 1 1 1 1 1 1 0 1 1 1 @3 eif #
vertex $125 -1 -1 $-1 $98 $126 #
straight-curve $-1 -1 -1 $-1 50 270 -0.00078541790310550559 0 0 -1 I I #
edge $127 -1 -1 $-1 $96 -50 $102 50 $93 $128 forward @7 unknown T -50 270 -125.0007854179031 50 270 -125.0007854179031 #
name_attrib-gen-attrib $-1 -1 $129 $-1 $65 2 1 1 1 1 1 1 1 1 1 1 1 1 1 0 1 1 1 @3 eif #
straight-curve $-1 -1 -1 $-1 50 270.39999999999998 -125.0007854179031 -6.1232339957367648e-17 -1 0 I I #
name_attrib-gen-attrib $-1 -1 $130 $-1 $67 2 1 1 1 1 1 1 1 1 1 1 1 1 1 0 1 1 1 @3 eif #
vertex $131 -1 -1 $-1 $67 $132 #
straight-curve $-1 -1 -1 $-1 -50 270.39999999999998 -125.0007854179031 6.1232339957367648e-17 1 0 I I #
integer_attrib-name_attrib-gen-attrib $-1 -1 $-1 $68 $41 2 1 1 1 1 1 1 1 1 1 1 1 1 1 0 1 1 1 @3 pid 5 #
integer_attrib-name_attrib-gen-attrib $-1 -1 $-1 $-1 $69 2 1 1 1 1 1 1 1 1 1 1 1 1 1 0 1 1 1 @3 pid 5 #
point $-1 -1 -1 $-1 -50 270.80000000000001 -125.0007854179031 #
integer_attrib-name_attrib-gen-attrib $-1 -1 $-1 $-1 $70 2 1 1 1 1 1 1 1 1 1 1 1 1 1 0 1 1 1 @3 pid 6 #
point $-1 -1 -1 $-1 50 270.80000000000001 -125.0007854179031 #
name_attrib-gen-attrib $-1 -1 $133 $-1 $73 2 1 1 1 1 1 1 1 1 1 1 1 1 1 0 1 1 1 @3 eif #
straight-curve $-1 -1 -1 $-1 2.1431318985078695e-18 270 124.9992145820969 1 -6.1232339957367648e-17 0 I I #
integer_attrib-name_attrib-gen-attrib $-1 -1 $-1 $76 $44 2 1 1 1 1 1 1 1 1 1 1 1 1 1 0 1 1 1 @3 pid 2 #
integer_attrib-name_attrib-gen-attrib $-1 -1 $-1 $-1 $77 2 1 1 1 1 1 1 1 1 1 1 1 1 1 0 1 1 1 @3 pid 3 #
point $-1 -1 -1 $-1 -50 270 124.9992145820969 #
integer_attrib-name_attrib-gen-attrib $-1 -1 $-1 $80 $46 2 1 1 1 1 1 1 1 1 1 1 1 1 1 0 1 1 1 @3 pid 4 #
integer_attrib-name_attrib-gen-attrib $-1 -1 $-1 $-1 $81 2 1 1 1 1 1 1 1 1 1 1 1 1 1 0 1 1 1 @3 pid 4 #
point $-1 -1 -1 $-1 50 270 124.9992145820969 #
name_attrib-gen-attrib $-1 -1 $134 $-1 $83 2 1 1 1 1 1 1 1 1 1 1 1 1 1 0 1 1 1 @3 eif #
straight-curve $-1 -1 -1 $-1 50 270.80000000000001 -0.00078541790310550559 0 0 -1 I I #
name_attrib-gen-attrib $-1 -1 $135 $-1 $84 2 1 1 1 1 1 1 1 1 1 1 1 1 1 0 1 1 1 @3 eif #
straight-curve $-1 -1 -1 $-1 -50 270.80000000000001 -0.00078541790310550559 0 0 -1 I I #
integer_attrib-name_attrib-gen-attrib $-1 -1 $-1 $91 $57 2 1 1 1 1 1 1 1 1 1 1 1 1 1 0 1 1 1 @3 pid 6 #
name_attrib-gen-attrib $-1 -1 $136 $-1 $94 2 1 1 1 1 1 1 1 1 1 1 1 1 1 0 1 1 1 @3 eif #
straight-curve $-1 -1 -1 $-1 -50 270 -0.00078541790310550559 0 0 -1 I I #
integer_attrib-name_attrib-gen-attrib $-1 -1 $-1 $95 $63 2 1 1 1 1 1 1 1 1 1 1 1 1 1 0 1 1 1 @3 pid 9 #
integer_attrib-name_attrib-gen-attrib $-1 -1 $-1 $-1 $96 2 1 1 1 1 1 1 1 1 1 1 1 1 1 0 1 1 1 @3 pid 7 #
point $-1 -1 -1 $-1 50 270 -125.0007854179031 #
name_attrib-gen-attrib $-1 -1 $137 $-1 $98 2 1 1 1 1 1 1 1 1 1 1 1 1 1 0 1 1 1 @3 eif #
straight-curve $-1 -1 -1 $-1 2.1431318985078695e-18 270 -125.0007854179031 -1 6.1232339957367648e-17 0 I I #
integer_attrib-name_attrib-gen-attrib $-1 -1 $-1 $99 $65 2 1 1 1 1 1 1 1 1 1 1 1 1 1 0 1 1 1 @3 pid 6 #
integer_attrib-name_attrib-gen-attrib $-1 -1 $-1 $101 $67 2 1 1 1 1 1 1 1 1 1 1 1 1 1 0 1 1 1 @3 pid 8 #
integer_attrib-name_attrib-gen-attrib $-1 -1 $-1 $-1 $102 2 1 1 1 1 1 1 1 1 1 1 1 1 1 0 1 1 1 @3 pid 8 #
point $-1 -1 -1 $-1 -50 270 -125.0007854179031 #
integer_attrib-name_attrib-gen-attrib $-1 -1 $-1 $109 $73 2 1 1 1 1 1 1 1 1 1 1 1 1 1 0 1 1 1 @3 pid 3 #
integer_attrib-name_attrib-gen-attrib $-1 -1 $-1 $117 $83 2 1 1 1 1 1 1 1 1 1 1 1 1 1 0 1 1 1 @3 pid 10 #
integer_attrib-name_attrib-gen-attrib $-1 -1 $-1 $119 $84 2 1 1 1 1 1 1 1 1 1 1 1 1 1 0 1 1 1 @3 pid 12 #
integer_attrib-name_attrib-gen-attrib $-1 -1 $-1 $122 $94 2 1 1 1 1 1 1 1 1 1 1 1 1 1 0 1 1 1 @3 pid 11 #
integer_attrib-name_attrib-gen-attrib $-1 -1 $-1 $127 $98 2 1 1 1 1 1 1 1 1 1 1 1 1 1 0 1 1 1 @3 pid 7 #
End-of-ACIS-data 